<svg width="56" height="57" viewBox="0 0 56 57" fill="none" xmlns="http://www.w3.org/2000/svg">
<path fill-rule="evenodd" clip-rule="evenodd" d="M31.6418 3.74552C32.8074 4.11294 33.6 5.19387 33.6 6.41599V20.416L44.8 20.416C45.8441 20.416 46.8014 20.9969 47.2835 21.9229C47.7657 22.849 47.6926 23.9664 47.0939 24.8217L27.4939 52.8217C26.793 53.8229 25.5238 54.2539 24.3582 53.8865C23.1926 53.519 22.4 52.4381 22.4 51.216L22.4 37.216H11.2C10.156 37.216 9.19862 36.6351 8.71646 35.7091C8.23431 34.783 8.30743 33.6656 8.90615 32.8103L28.5062 4.81029C29.207 3.8091 30.4762 3.3781 31.6418 3.74552Z" fill="#FF7500"/>
</svg>
