<svg width="56" height="57" viewBox="0 0 56 57" fill="none" xmlns="http://www.w3.org/2000/svg">
<path fill-rule="evenodd" clip-rule="evenodd" d="M14 6.41595C15.5464 6.41595 16.8 7.66956 16.8 9.21595V12.016H19.6C21.1464 12.016 22.4 13.2696 22.4 14.816C22.4 16.3624 21.1464 17.616 19.6 17.616H16.8V20.416C16.8 21.9624 15.5464 23.216 14 23.216C12.4536 23.216 11.2 21.9624 11.2 20.416V17.616H8.4C6.8536 17.616 5.6 16.3624 5.6 14.816C5.6 13.2696 6.8536 12.016 8.4 12.016H11.2V9.21595C11.2 7.66956 12.4536 6.41595 14 6.41595ZM14 34.416C15.5464 34.416 16.8 35.6696 16.8 37.216V40.016H19.6C21.1464 40.016 22.4 41.2696 22.4 42.816C22.4 44.3624 21.1464 45.616 19.6 45.616H16.8V48.416C16.8 49.9624 15.5464 51.216 14 51.216C12.4536 51.216 11.2 49.9624 11.2 48.416V45.616H8.4C6.8536 45.616 5.6 44.3624 5.6 42.816C5.6 41.2696 6.8536 40.016 8.4 40.016H11.2V37.216C11.2 35.6696 12.4536 34.416 14 34.416Z" fill="#FF7500"/>
<path fill-rule="evenodd" clip-rule="evenodd" d="M33.5999 6.41595C34.8703 6.41595 35.9815 7.27131 36.3066 8.49946L39.6084 20.973L48.9991 26.3906C49.8658 26.8907 50.3999 27.8153 50.3999 28.816C50.3999 29.8166 49.8658 30.7412 48.9991 31.2413L39.6084 36.659L36.3066 49.1325C35.9815 50.3606 34.8703 51.216 33.5999 51.216C32.3294 51.216 31.2182 50.3606 30.8931 49.1325L27.5913 36.6589L18.2008 31.2413C17.334 30.7412 16.8 29.8166 16.8 28.816C16.8 27.8153 17.334 26.8907 18.2008 26.3906L27.5913 20.973L30.8931 8.49946C31.2182 7.27131 32.3294 6.41595 33.5999 6.41595Z" fill="#FF7500"/>
</svg>
